<?xml version="1.0" encoding="UTF-8" standalone="no"?>
<!-- Created with Inkscape (http://www.inkscape.org/) -->
<svg xmlns:svg="http://www.w3.org/2000/svg" xmlns="http://www.w3.org/2000/svg" version="1.0" width="270" height="320" id="svg2">
  <defs id="defs4"/>
  <g id="layer1">
    <g transform="matrix(1.25, 0, 0, -1.25, 17.795, 821.463)" id="g2412">
      <g transform="matrix(0.274286, 0, 0, 0.274286, 218.887, 512.203)" id="g2620">
        <g transform="translate(8.83883, 5.89256)" id="g3656">
          <g transform="matrix(0.5, 0, 0, 0.5, 73.4912, -61.1362)" id="g3722">
            <g transform="matrix(2.46667, 0, 0, 2.46667, -226.789, 384.692)" id="g3851">
              <g transform="translate(-11.8242, -4.72966)" id="g4187">
                <g transform="matrix(1.01351, 0, 0, -1.01351, 45.9147, 291.109)" id="g3653">
                  <path d="M -339.607,691.79302 C -340.97627,691.6375 -346.76458,691.10092 -352.46991,690.60058 C -439.68412,682.95224 -515.74975,640.73118 -525.54075,594.53575 C -530.4727,571.26598 -517.78474,545.73719 -492.89004,528.84099 C -490.53631,527.24348 -488.60093,525.69134 -488.58914,525.39176 C -488.54528,524.27502 -497.13446,512.25177 -506.87443,499.79571 C -512.4064,492.72112 -518.04249,485.338 -519.39907,483.38882 C -522.45667,478.99549 -522.88702,479.25503 -524.68071,486.57432 C -526.97758,495.94691 -526.1681,503.02827 -521.89408,510.95203 C -519.99593,514.47111 -518.44289,517.70076 -518.44289,518.12907 C -518.44289,519.10167 -568.83443,579.6344 -570.39392,580.53515 C -574.66318,583.00104 -607.56287,540.84437 -624.01342,511.82874 C -752.79799,284.67748 -580.94928,-7.2450035 -318.44545,-7.2450035 C -275.31154,-7.2450035 -195.62543,8.3103276 -195.62543,16.730403 C -195.62543,18.045939 -248.62896,106.59843 -250.67986,108.70933 C -251.43079,109.48224 -252.89522,109.53444 -256.63762,108.92162 C -268.04919,107.05298 -278.59154,108.19221 -284.20598,111.90067 C -286.89975,113.68 -287.61127,113.39307 -272.12625,116.77214 C -266.96165,117.89913 -257.62566,120.34142 -251.37963,122.19943 C -240.0232,125.57768 -240.0232,125.57768 -223.84084,109.54468 C -203.57184,89.4628 -193.0021,80.518983 -189.95842,80.874397 C -187.8554,81.119994 -187.22129,82.766096 -171.79834,128.01623 C -155.42963,176.04123 -155.2358,176.78591 -158.63173,178.60334 C -160.61416,179.66431 -160.61416,179.66431 -142.51408,233.71476 C -120.22522,300.27367 -105.7681,342.2755 -98.773382,360.79333 C -95.842482,368.55258 -91.749712,379.38231 -89.678285,384.85942 C -78.300433,414.94428 -81.664747,426.65862 -102.33122,428.91626 C -113.64941,430.15267 -118.78393,438.76346 -113.18012,447.11038 C -106.93759,456.4087 -107.27957,461.23327 -114.68804,468.38445 C -119.17861,472.71902 -119.17861,472.71902 -116.88512,475.33118 C -110.85251,482.20196 -111.71497,495.64639 -118.18834,495.64639 C -121.32876,495.64639 -125.43758,497.71326 -128.22389,500.6946 C -130.79888,503.44983 -130.79888,503.44983 -127.59815,506.92222 C -97.884332,539.1579 -131.64115,570.89018 -198.44198,573.51726 C -212.46171,574.06863 -212.46171,574.06863 -214.39848,580.70754 C -218.16805,593.62894 -223.33525,622.56805 -222.09444,623.80889 C -221.86573,624.0376 -214.78967,626.26454 -206.36989,628.75767 C -166.24896,640.63753 -149.08121,648.44134 -151.15853,653.85471 C -152.68993,657.8455 -196.32978,674.43141 -222.59603,681.00552 C -258.79975,690.06683 -311.78834,694.95196 -339.607,691.79302 z M -313.46623,684.50226 C -322.36639,679.71155 -390.87524,658.59972 -414.58705,653.34064 C -422.34805,651.61933 -422.34805,651.61933 -432.17772,656.41188 C -442.32192,661.3578 -443.10656,661.94131 -440.64305,662.7071 C -439.84431,662.9554 -434.89622,664.70522 -429.64735,666.59558 C -397.2016,678.28077 -358.51748,684.98047 -320.52009,685.49532 C -312.43819,685.60484 -311.62944,685.49098 -313.46623,684.50226 z M -267.52386,682.35046 C -260.74079,681.49672 -255.0101,680.61726 -254.78899,680.39615 C -253.88114,679.48833 -333.21584,654.50622 -371.05712,643.78388 C -405.18553,634.11357 -400.86281,634.52165 -407.65592,640.32896 C -410.85089,643.06029 -413.56418,645.53124 -413.68544,645.81995 C -413.80671,646.10865 -410.25903,647.20625 -405.80173,648.25905 C -377.78571,654.87627 -314.74344,675.23609 -297.681,683.17721 C -293.40313,685.1682 -288.93847,685.0458 -267.52386,682.35046 z M -232.26111,676.18463 C -229.81766,675.53428 -227.69604,674.87973 -227.54641,674.7301 C -227.39681,674.58046 -227.7843,671.0445 -228.40756,666.87237 C -232.5012,639.46903 -229.7402,609.03294 -220.05694,574.81834 C -219.59147,573.17365 -219.96538,573.04777 -226.88933,572.51792 C -256.88175,570.22274 -293.54831,558.91214 -322.7224,542.95604 C -333.22336,537.21279 -333.22336,537.21279 -337.69653,539.63557 C -343.06846,542.54513 -351.19263,544.5794 -357.50748,544.59615 C -362.13012,544.60842 -362.13012,544.60842 -363.17744,554.77426 C -365.81577,580.38371 -375.50865,604.12794 -391.30506,623.67734 C -393.8053,626.77157 -395.70626,629.41872 -395.52945,629.55989 C -395.3526,629.70107 -388.67275,631.58909 -380.68531,633.75548 C -352.08718,641.51206 -296.0712,658.74466 -261.59968,670.39067 C -239.9212,677.71464 -238.82373,677.93138 -232.26111,676.18463 z M -209.18291,669.97085 C -185.8327,662.81076 -186.43623,663.54974 -200.39716,659.21339 C -223.81023,651.94116 -223.22505,652.00229 -222.6279,656.89126 C -221.76341,663.96904 -220.3101,673.23749 -220.06475,673.23749 C -219.93884,673.23749 -215.04202,671.76751 -209.18291,669.97085 z M -168.72687,655.23662 C -161.62943,652.13846 -161.56953,651.95057 -166.92426,649.58246 C -175.98443,645.57561 -218.56739,631.74423 -221.84316,631.74423 C -222.75367,631.74423 -223.00816,633.25272 -222.99812,638.59062 C -222.98523,645.43701 -222.98523,645.43701 -208.62091,649.46739 C -200.72055,651.68411 -190.92355,654.89005 -186.84981,656.59171 C -178.59293,660.04077 -179.96803,660.1436 -168.72687,655.23662 z M -443.76908,654.24462 C -401.17978,635.88336 -372.37415,595.59306 -370.12337,551.23669 C -369.68068,542.51249 -369.68068,542.51249 -373.86508,540.62137 C -376.1665,539.58125 -379.6695,537.44669 -381.64952,535.87793 C -385.24957,533.0256 -385.24957,533.0256 -385.77923,546.07833 C -387.42463,586.62739 -406.7384,617.66286 -442.43698,637.12216 C -451.42945,642.02397 -454.06236,641.68445 -468.53536,633.75679 C -511.05751,610.46504 -518.60259,572.31358 -485.30673,548.95263 C -482.30782,546.84854 -479.71958,545.03134 -479.55505,544.91439 C -479.08269,544.57859 -483.80126,532.9568 -484.61388,532.45458 C -485.79404,531.72519 -497.31318,541.0231 -503.33764,547.56783 C -535.37859,582.37592 -518.54413,623.44225 -459.84292,653.66978 C -451.01149,658.21743 -452.83301,658.15229 -443.76908,654.24462 z M -442.65121,629.04718 C -393.87473,599.36328 -378.16358,539.88444 -405.37198,487.91647 C -408.33284,482.26122 -408.33284,482.26122 -413.78167,487.50155 C -416.77852,490.38372 -419.35761,492.79695 -419.513,492.86428 C -419.66835,492.93161 -418.50774,495.54567 -416.93384,498.67335 C -391.65164,548.91386 -410.93403,600.98083 -462.50851,621.73552 C -471.4592,625.33749 -471.59473,625.03941 -458.27769,631.04012 C -451.48379,634.10145 -450.81655,634.01636 -442.65121,629.04718 z M -465.0895,615.13003 C -417.5586,596.06055 -400.44055,550.86567 -422.58514,502.91041 C -425.09852,497.46752 -424.97547,497.46049 -431.67152,503.42928 C -435.77036,507.08293 -435.77036,507.08293 -432.81087,513.60517 C -414.80558,553.286 -438.99749,596.54652 -483.9964,605.13636 C -491.45813,606.56071 -491.45813,606.56071 -485.09854,613.04518 C -477.67993,620.6095 -478.52712,620.52122 -465.0895,615.13003 z M -482.94353,597.76902 C -449.70705,590.91053 -428.1358,559.69213 -435.14217,528.58988 C -436.51088,522.514 -440.67007,512.2437 -441.76192,512.2437 C -443.74799,512.2437 -454.61894,521.6283 -454.09629,522.89164 C -440.54616,555.64481 -454.47768,579.36602 -491.54075,586.64827 C -499.529,588.21781 -499.76532,588.67184 -496.57204,596.31439 C -495.03586,599.99104 -494.16305,600.08419 -482.94353,597.76902 z M -489.16995,578.93945 C -475.94076,575.93053 -475.84426,575.81915 -476.29647,564.08062 C -476.51609,558.37905 -476.94021,553.46977 -477.23889,553.17105 C -479.14644,551.26351 -492.11745,563.50313 -495.46152,570.36617 C -500.42854,580.55994 -499.83725,581.36565 -489.16995,578.93945 z M -548.79017,544.30432 C -536.62279,529.75964 -526.77762,517.58768 -526.91208,517.25554 C -527.04649,516.92336 -528.83626,514.21598 -530.88933,511.23909 C -534.62219,505.82655 -534.62219,505.82655 -557.16908,527.7071 C -579.35188,549.23428 -581.01752,550.58065 -583.00638,548.59177 C -585.60167,545.99648 -584.01079,544.03907 -561.59586,522.24795 C -549.27237,510.26742 -539.18952,500.16322 -539.18952,499.79415 C -539.18952,498.50638 -546.75587,486.93435 -547.4759,487.1209 C -547.87516,487.22438 -560.90659,496.79421 -576.43465,508.38724 C -604.66745,529.46545 -604.66745,529.46545 -600.1753,535.99961 C -590.77536,549.67246 -572.91619,571.51417 -571.5598,570.99627 C -571.2039,570.86035 -560.95756,558.84898 -548.79017,544.30432 z M -464.26674,566.20983 C -455.33955,556.28065 -453.33228,536.98267 -460.14866,526.61824 C -460.67837,525.81281 -472.43603,532.3494 -474.91298,534.82634 C -475.15376,535.06712 -474.61593,537.12838 -473.71779,539.4069 C -471.31419,545.50496 -469.49065,555.28365 -469.26479,563.2862 C -469.03142,571.55543 -469.05859,571.53953 -464.26674,566.20983 z M -191.76488,566.17812 C -134.6367,561.81998 -109.14345,537.36036 -133.88084,510.641 C -136.68954,507.60731 -138.36272,505.06419 -138.35929,503.83411 C -138.34702,499.4289 -131.28441,492.58751 -124.1234,490.04415 C -118.90824,488.19189 -118.42056,484.34789 -122.77197,479.3919 C -125.43624,476.35746 -125.43624,476.35746 -133.7677,476.74442 C -142.80762,477.16429 -173.2632,484.02621 -175.77402,486.20883 C -177.89543,488.05298 -180.63015,487.60762 -181.51759,485.27345 C -183.23256,480.76273 -178.7975,469.09072 -175.36861,469.09072 C -172.45643,469.09072 -171.43386,471.36044 -172.83968,474.70395 C -174.22988,478.01023 -174.80661,478.01939 -160.88579,474.51374 C -147.95417,471.25714 -135.63458,469.09897 -129.94838,469.09404 C -125.7206,469.09039 -121.19832,466.15352 -117.7245,461.15565 C -115.29341,457.65796 -115.49379,455.92577 -118.87766,451.18722 C -124.13488,443.82535 -124.36971,438.0801 -119.67307,431.72494 C -115.25807,425.75089 -135.80822,427.77865 -145.27193,434.25089 C -151.25474,438.34253 -152.75477,438.36841 -156.45684,434.44384 C -165.63859,424.71029 -165.13617,411.78582 -155.22077,402.64613 C -151.2682,399.00279 -150.66479,398.81866 -148.79735,400.68614 C -146.8735,402.60997 -147.1797,404.0066 -150.2847,407.47086 C -157.06817,415.03908 -157.70124,420.72476 -152.60513,428.31076 C -151.9964,429.21691 -150.47952,428.76708 -144.89851,426.02546 C -135.37526,421.34717 -128.34598,420.31525 -115.80301,421.75414 C -101.5212,423.39249 -93.232182,421.04855 -90.542425,414.61105 C -88.503335,409.7308 -89.908317,403.97614 -98.718092,381.12503 C -104.85673,365.20244 -112.02952,345.26321 -120.95855,319.30008 C -129.03684,295.81071 -127.7297,297.89699 -135.71924,295.74122 C -164.63296,287.93942 -217.62872,297.27923 -228.50193,312.09292 C -233.77072,319.27115 -242.93407,328.30422 -251.46864,334.73309 C -258.28024,339.86409 -258.28024,339.86409 -260.07434,346.59432 C -267.49961,374.44854 -285.75892,396.76342 -311.02298,408.85913 C -318.63401,412.50309 -331.74598,416.79618 -335.34303,416.82193 C -338.97756,416.84796 -341.73681,423.78301 -338.52452,424.8182 C -313.87467,432.76182 -302.87514,462.72008 -316.42966,484.99566 C -319.29065,489.69745 -319.29065,489.69745 -318.03818,494.506 C -314.99408,506.19308 -318.08074,520.70304 -325.48214,529.49912 C -327.63157,532.05358 -327.63157,532.05358 -322.00119,535.32533 C -284.16347,557.31224 -233.34798,569.35037 -191.76488,566.17812 z M -210.563,357.31214 C -216.52508,356.67365 -227.7129,354.45326 -231.72455,353.11233 C -234.00668,352.3495 -237.51134,351.71175 -239.51265,351.6951 C -253.75163,351.57664 -233.19543,333.88573 -210.14807,326.42359 C -196.44432,321.98664 -168.4844,318.84562 -160.50955,320.84717 C -155.80867,322.02701 -157.40111,327.7814 -163.14356,330.36534 C -166.20965,331.745 -166.215,331.75635 -165.54758,335.48245 C -164.21148,342.94158 -166.80886,351.23169 -171.55935,354.67022 C -175.11265,357.24219 -197.2282,358.7402 -210.563,357.31214 z M -186.02416,350.2239 C -185.89406,350.09379 -186.49519,347.93743 -187.35997,345.43197 C -189.11115,340.35848 -189.38968,335.63242 -188.185,331.43196 C -187.3835,328.63723 -187.3835,328.63723 -191.71192,329.20171 C -200.6359,330.36551 -200.06937,329.70637 -199.53005,338.2983 C -198.75612,350.6283 -198.16901,351.57245 -191.65379,350.96404 C -188.68759,350.68703 -186.15425,350.35399 -186.02416,350.2239 z M -205.6514,347.30803 C -206.04888,345.59644 -206.38298,341.67532 -206.39386,338.59446 C -206.40775,334.66938 -206.72413,332.99703 -207.45101,333.00681 C -211.36572,333.05951 -231.30962,343.39743 -231.30962,345.37392 C -231.30962,346.52319 -214.43114,350.16884 -208.36825,350.32909 C -204.92872,350.42002 -204.92872,350.42002 -205.6514,347.30803 z M -343.16042,534.46574 C -311.11903,519.68348 -321.40643,471.99523 -356.63668,471.99523 C -394.02189,471.99523 -402.64344,523.07124 -367.40748,535.80379 C -361.47589,537.94717 -349.24345,537.27214 -343.16042,534.46574 z M -361.27089,522.08589 C -368.64474,520.43259 -374.8398,512.33958 -374.8398,504.35997 C -374.8398,486.09018 -350.38951,479.61032 -341.10812,495.42033 C -333.0839,509.08894 -345.57271,525.6056 -361.27089,522.08589 z M -351.56214,514.27806 C -343.85787,510.29402 -344.04867,498.25645 -351.87495,494.54263 C -357.81026,491.72615 -363.88358,493.95676 -366.87065,500.05023 C -371.38314,509.25546 -360.82512,519.06814 -351.56214,514.27806 z M -466.66797,520.84186 C -428.069,495.40722 -395.02492,462.2935 -354.98695,408.92551 C -339.45888,388.2276 -333.62723,379.94345 -302.70253,334.65259 C -239.8692,242.62994 -210.73379,208.02927 -171.76682,179.15576 C -167.54488,176.02743 -164.09056,173.24991 -164.09056,172.98354 C -164.09056,171.81806 -169.46708,156.23177 -169.86861,156.23316 C -170.99535,156.23704 -195.21765,177.39628 -205.28871,187.17412 C -238.37304,219.29531 -263.14727,250.71108 -319.29859,331.74807 C -386.37555,428.55283 -421.05409,468.5481 -469.06592,504.47701 C -475.45588,509.25883 -481.76978,514.00205 -483.09678,515.01747 C -485.50955,516.86368 -485.50955,516.86368 -483.43376,520.15528 C -482.29207,521.96566 -480.73092,524.47382 -479.96454,525.72899 C -478.15269,528.69639 -479.13664,529.05806 -466.66797,520.84186 z M -579.92317,502.17724 C -564.59426,490.70718 -551.74458,481.04468 -551.36834,480.70503 C -550.85791,480.24429 -556.45264,467.5192 -557.86121,465.93714 C -557.98314,465.80018 -569.1632,472.45203 -582.70577,480.71906 C -598.29468,490.23525 -607.96606,495.65488 -609.06599,495.49073 C -611.43995,495.13645 -612.87771,492.72903 -611.76697,490.96811 C -611.13393,489.96456 -577.54087,468.86295 -562.49426,460.01731 C -561.29529,459.31243 -565.30803,447.52354 -566.74918,447.51693 C -567.65774,447.51274 -631.57293,477.3258 -632.37504,478.12792 C -633.7825,479.53539 -610.49658,523.03194 -608.33564,523.03194 C -608.03769,523.03194 -595.25207,513.64732 -579.92317,502.17724 z M -480.40017,504.22128 C -428.08932,466.58989 -394.2465,427.90311 -320.08487,320.95981 C -264.02514,240.12005 -236.71147,206.22856 -201.84942,174.25034 C -188.88259,162.35616 -189.36361,163.39316 -196.22772,162.13178 C -211.94288,159.24389 -210.79039,161.07986 -208.48585,142.60387 C -207.80714,137.16252 -207.38669,132.57565 -207.55147,132.41086 C -208.00961,131.95274 -226.01796,152.09644 -235.54838,163.72754 C -259.4339,192.8778 -281.70141,225.04476 -318.82797,284.03084 C -400.71668,414.13423 -435.97133,457.76665 -488.2041,493.65677 C -492.78582,496.80497 -496.70257,499.60625 -496.90792,499.88183 C -497.25572,500.3485 -490.21746,510.58396 -489.54876,510.58396 C -489.38163,510.58396 -485.26475,507.72075 -480.40017,504.22128 z M -261.18476,219.30137 C -264.59086,215.89526 -262.30102,210.17286 -257.53194,210.17286 C -254.16009,210.17286 -252.05623,212.33211 -252.05623,215.79275 C -252.05623,220.42172 -257.841,222.64515 -261.18476,219.30137 z M -245.13784,198.98902 C -247.55182,197.29821 -248.2028,194.06533 -246.71042,191.17938 C -242.98857,183.98207 -232.72034,189.11461 -235.86737,196.59921 C -237.4388,200.33653 -241.66031,201.42481 -245.13784,198.98902 z M -228.68775,179.79905 C -232.93334,176.82531 -232.4621,170.5772 -227.81081,168.17192 C -220.93293,164.61523 -214.56875,173.59068 -220.06872,179.09063 C -222.43361,181.45552 -225.91437,181.7416 -228.68775,179.79905 z M -532.23059,488.34587 C -531.93248,486.38448 -530.73168,482.00872 -529.5621,478.62196 C -527.43563,472.4642 -527.43563,472.4642 -532.38199,464.32249 C -571.58133,399.80025 -574.55532,314.05458 -540.08872,242.12264 C -496.61721,151.39734 -406.15941,100.38284 -307.39955,110.89543 C -295.10886,112.20373 -295.10886,112.20373 -292.22677,109.32165 C -289.15952,106.2544 -282.10765,102.2904 -279.71833,102.2904 C -276.2748,102.2904 -280.45194,100.68779 -288.15538,99.053395 C -420.97772,70.87329 -556.60035,168.58135 -577.74003,307.682 C -586.62553,366.14942 -573.26414,428.09091 -539.49492,484.9808 C -533.68922,494.76145 -533.23751,494.97068 -532.23059,488.34587 z M -492.9445,488.3947 C -444.48807,455.81703 -405.48292,408.12286 -332.95758,292.76815 C -298.37827,237.76826 -287.15512,220.71091 -268.7843,195.23528 C -244.64999,161.76716 -215.88451,128.63476 -194.99027,110.2385 C -186.95115,103.16048 -187.06557,103.87846 -191.8951,90.817408 C -192.95544,87.949884 -229.94738,124.29099 -247.92177,145.85832 C -273.88292,177.00892 -293.67908,205.32662 -336.68266,272.82765 C -410.93074,389.37196 -452.42274,441.22372 -503.29785,481.0434 C -509.41022,485.82753 -509.27102,485.23598 -505.44125,490.15165 C -501.91114,494.6827 -502.39949,494.75137 -492.9445,488.3947 z M -388.16972,479.60861 C -385.56666,476.64389 -386.4488,468.27014 -389.8236,463.90934 C -390.08628,463.56994 -393.15913,466.41496 -396.65218,470.23162 C -403.0032,477.17102 -403.0032,477.17102 -399.13939,484.75898 C -395.27556,492.34691 -395.27556,492.34691 -393.09276,487.5382 C -391.89217,484.8934 -389.67683,481.3251 -388.16972,479.60861 z M -319.28523,474.18993 C -312.86482,453.90935 -325.80735,433.18998 -346.62088,430.42896 C -352.74612,429.61644 -354.67203,423.44814 -348.80051,423.44814 C -347.26686,423.44814 -346.77103,422.91529 -346.48383,420.95855 C -346.12695,418.52697 -346.20028,418.46896 -349.63022,418.46896 C -354.21163,418.46896 -366.85434,433.36379 -366.18335,437.97078 C -365.98392,439.34006 -365.59862,442.20824 -365.32711,444.34451 C -364.83352,448.22865 -364.83352,448.22865 -360.5189,446.2198 C -343.79418,438.43297 -328.31377,451.17011 -332.44385,469.31971 C -332.89823,471.31645 -332.30476,472.31923 -327.98888,476.84688 C -322.22701,482.89148 -322.01994,482.82827 -319.28523,474.18993 z M -500.62358,469.78933 C -492.23509,462.77251 -479.22817,450.94129 -478.77878,449.91909 C -478.64376,449.61194 -481.66299,447.75804 -485.48823,445.79932 C -492.44313,442.23802 -492.44313,442.23802 -497.76676,446.55822 C -504.02607,451.63775 -511.00663,454.15315 -518.84362,454.15315 C -525.62939,454.15315 -526.05427,453.59386 -524.90568,446.17341 C -523.50737,437.13952 -525.05827,411.36993 -527.22338,407.66275 C -528.84997,404.87764 -528.84997,404.87764 -537.60204,405.09519 C -546.75608,405.32274 -549.87522,404.23168 -547.85497,401.50872 C -547.42501,400.92924 -545.70903,398.6442 -544.04169,396.43088 C -539.764,390.75248 -533.71665,362.03814 -536.79844,362.03814 C -539.61892,362.03814 -554.95694,373.87311 -554.95694,376.04942 C -554.95694,400.37965 -538.82895,443.14392 -518.687,472.22117 C -512.49913,481.15408 -514.53814,481.42862 -500.62358,469.78933 z M -601.84431,455.82644 C -584.04371,447.52703 -569.4079,440.665 -569.32028,440.57749 C -568.78719,440.04509 -573.60546,428.42598 -574.36181,428.41997 C -574.87157,428.41595 -587.58061,432.01606 -602.60415,436.42024 C -630.75607,444.67306 -632.2621,444.91203 -632.76155,441.20548 C -633.16489,438.21199 -631.51785,437.53579 -604.70373,429.68599 C -589.8947,425.35065 -577.35428,421.64161 -576.83612,421.44365 C -575.3755,420.88564 -579.90135,404.3609 -581.51264,404.36883 C -583.28696,404.37757 -652.17372,419.14476 -652.64673,419.61779 C -654.33128,421.30234 -637.14521,472.1129 -635.164,471.30546 C -634.63878,471.09142 -619.64493,464.12585 -601.84431,455.82644 z M -368.33011,465.66385 C -367.63551,465.43232 -367.73572,464.2737 -368.69343,461.46298 C -369.4208,459.3283 -370.66625,454.36944 -371.46112,450.44323 C -372.90637,443.30468 -372.90637,443.30468 -378.40244,449.81754 C -384.50709,457.05155 -384.49037,456.94012 -381.05559,467.49026 C -379.82052,471.28394 -379.82052,471.28394 -374.55488,468.63377 C -371.65879,467.17615 -368.85762,465.83971 -368.33011,465.66385 z M -340.64047,456.85763 C -345.65906,447.18703 -364.4373,450.23769 -361.62916,460.26736 C -360.61747,463.88076 -360.61747,463.88076 -354.67651,464.38681 C -351.40895,464.66514 -346.68158,465.59488 -344.17126,466.45288 C -339.607,468.0129 -339.607,468.0129 -339.35379,463.91893 C -339.1819,461.14011 -339.59525,458.87175 -340.64047,456.85763 z M -508.48452,445.1684 C -505.90809,444.16434 -499.34839,439.42455 -499.37739,438.58797 C -499.38918,438.24851 -501.30478,436.67732 -503.63437,435.09644 C -505.96395,433.51553 -510.06214,430.06367 -512.74149,427.42559 C -517.61302,422.62912 -517.61302,422.62912 -517.61302,434.96453 C -517.61302,448.27957 -517.31694,448.61055 -508.48452,445.1684 z M -465.73961,437.38806 C -459.33637,430.58138 -459.33637,430.58138 -465.97447,429.15335 C -486.13968,424.8153 -502.00312,413.86556 -509.42601,399.16091 C -511.88734,394.28505 -511.88734,394.28505 -514.96511,397.04102 C -516.65786,398.55682 -518.92725,400.37225 -520.00818,401.07535 C -522.39017,402.62475 -521.34503,405.22253 -514.72185,414.2151 C -507.19838,424.43005 -500.99795,429.36186 -483.87687,438.74924 C -471.77816,445.38291 -473.37318,445.5026 -465.73961,437.38806 z M -446.7775,416.57297 C -439.38239,408.0722 -439.56798,408.48389 -443.54757,409.40802 C -460.59612,413.36707 -480.47398,403.73753 -488.33713,387.71034 C -503.804,356.18474 -482.93569,320.86743 -438.04575,302.5978 C -436.14242,301.82317 -451.76387,294.81907 -455.3949,294.81907 C -461.21803,294.81907 -483.24284,312.80873 -491.46312,324.27928 C -522.54381,367.64906 -508.73286,412.54103 -461.08845,423.01103 C -453.70464,424.63364 -453.8445,424.69656 -446.7775,416.57297 z M -618.02668,404.77011 C -599.085,400.76386 -583.27563,397.20884 -582.89467,396.87008 C -582.23064,396.27952 -583.837,384.39485 -584.78906,382.85439 C -585.05292,382.42743 -597.65841,383.27897 -614.29366,384.84746 C -644.69153,387.71365 -646.24209,387.67746 -646.24209,384.10197 C -646.24209,380.84743 -645.13252,380.62425 -615.12216,377.84271 C -599.14725,376.36204 -585.98947,375.06928 -585.88262,374.96988 C -585.3724,374.49519 -587.19745,359.34783 -587.83591,358.75799 C -588.23772,358.38676 -604.90444,357.82142 -624.87307,357.50169 C -661.17966,356.92035 -661.17966,356.92035 -661.17109,359.68671 C -661.12455,374.72503 -655.47217,413.18753 -653.42228,412.41471 C -652.89637,412.21644 -636.96834,408.77637 -618.02668,404.77011 z M -329.64864,408.41169 C -290.40608,398.48884 -260.33391,356.70488 -264.08981,317.32049 C -264.68287,311.10151 -266.8944,298.14091 -267.54104,297.09463 C -267.77632,296.71391 -270.24426,299.66365 -273.02533,303.64959 C -278.08184,310.89674 -278.08184,310.89674 -278.17752,323.39708 C -278.4242,355.63179 -296.13589,380.06452 -328.11933,392.29027 C -340.29667,396.94509 -351.36625,411.62356 -341.97955,410.66915 C -338.84893,410.35083 -333.30002,409.33498 -329.64864,408.41169 z M -439.48567,401.02748 C -431.75973,398.57517 -431.21125,398.13492 -423.46661,388.17051 C -416.37817,379.05036 -416.37817,379.05036 -416.37384,372.37833 C -416.36382,356.96891 -423.41672,344.33026 -435.26154,338.53191 C -439.33711,336.53682 -439.9837,336.76225 -448.67786,343.20967 C -453.18573,346.55263 -453.18573,346.55263 -448.90489,347.94817 C -424.15979,356.01499 -426.04701,389.42369 -451.24782,389.42369 C -463.71043,389.42369 -469.93378,381.90027 -469.29983,367.60054 C -468.23238,343.52174 -445.69924,326.16819 -405.9962,318.84822 C -400.51909,317.83842 -395.47766,316.83799 -394.79301,316.62501 C -393.28916,316.15721 -402.54633,312.46216 -415.51486,308.35378 C -425.03354,305.33827 -425.03354,305.33827 -430.45244,307.2611 C -451.27063,314.64818 -469.31654,327.47965 -478.19972,341.21166 C -499.546,374.20965 -474.91126,412.27196 -439.48567,401.02748 z M -524.69872,395.4633 C -515.84398,390.93259 -514.39901,388.39395 -514.89879,378.24612 C -516.41622,347.43523 -497.12633,311.87224 -469.6005,294.73389 C -462.49723,290.31119 -462.54325,290.86165 -468.99057,287.43738 C -475.30479,284.08378 -474.37688,283.79193 -485.24828,292.55063 C -514.83834,316.39026 -526.57526,336.57208 -529.67083,368.93588 C -531.06934,383.55723 -531.7569,387.31768 -534.21361,393.78132 C -535.1242,396.1771 -535.86939,398.17964 -535.86964,398.23143 C -535.87189,398.74038 -526.62531,396.44909 -524.69872,395.4633 z M -319.79505,380.74377 C -298.64636,368.69168 -287.00057,351.06126 -284.82708,327.8062 C -284.49648,324.26892 -284.43529,321.37476 -284.69108,321.37476 C -284.94689,321.37476 -290.66383,329.49704 -297.39538,339.42433 C -304.12692,349.35158 -313.84348,363.54226 -318.98773,370.95919 C -329.23814,385.73808 -329.27166,386.14424 -319.79505,380.74377 z M -447.48944,381.87295 C -431.66626,377.57066 -437.70302,354.70863 -454.77896,354.26648 C -466.4494,353.96431 -466.06921,379.95437 -454.37042,382.19457 C -451.14348,382.81248 -450.90369,382.80127 -447.48944,381.87295 z M -401.98387,359.1336 C -395.8979,350.63695 -395.93884,349.42268 -402.65233,339.30835 C -410.55721,327.3991 -411.6637,326.82911 -421.14121,329.78337 C -430.62147,332.73846 -430.83492,332.95341 -426.77893,335.46015 C -418.05958,340.84899 -409.77601,355.77323 -409.74043,366.15782 C -409.72811,369.75124 -409.33236,369.39283 -401.98387,359.1336 z M -549.33884,361.34284 C -546.72348,359.56951 -542.52972,357.08835 -540.01937,355.82919 C -537.50904,354.57004 -535.37011,353.46863 -535.26622,353.38159 C -535.16231,353.29456 -534.14905,350.02016 -533.01451,346.10512 C -531.87998,342.19006 -530.02498,336.89134 -528.89231,334.33012 C -526.41695,328.73294 -526.44786,328.72497 -532.86014,333.30553 C -544.39593,341.54601 -556.61667,356.34237 -556.61667,362.06898 C -556.61667,366.14324 -556.3843,366.12006 -549.33884,361.34284 z M -587.32168,343.96566 C -587.32168,336.68142 -587.32168,336.68142 -616.57442,333.48794 C -646.8024,330.18798 -647.90183,329.94965 -647.90183,326.69648 C -647.90183,323.12184 -646.26957,323.10674 -616.38075,326.40491 C -600.64165,328.14169 -587.64218,329.44067 -587.49303,329.29152 C -586.79535,328.59382 -585.60518,311.98087 -586.2144,311.44356 C -586.59519,311.10772 -602.03105,307.75594 -620.51628,303.99518 C -639.00151,300.23442 -654.90943,296.97846 -655.86717,296.75973 C -657.82339,296.31296 -658.6788,300.84768 -660.35387,320.54491 C -662.00849,340.00163 -661.53048,349.57264 -658.89752,349.70413 C -655.11124,349.89322 -610.09916,350.92534 -598.31738,351.09322 C -587.32168,351.2499 -587.32168,351.2499 -587.32168,343.96566 z M -550.96316,340.45458 C -545.7246,334.83901 -545.7246,334.83901 -550.53993,327.09125 C -556.05834,318.21227 -555.99297,318.11093 -556.88752,336.93472 C -557.40508,347.826 -557.68472,347.65987 -550.96316,340.45458 z M -385.0421,334.63755 C -376.67301,321.97523 -376.79212,321.78332 -391.87931,323.62151 C -404.84698,325.20144 -404.55197,324.91091 -399.70908,331.33311 C -397.4719,334.29991 -394.79769,338.31437 -393.7664,340.25419 C -391.36586,344.76953 -392.01497,345.18741 -385.0421,334.63755 z M -536.58493,327.21531 C -533.56543,325.17212 -533.56543,325.17212 -537.74551,316.76711 C -543.30954,305.57936 -543.18654,305.13293 -533.15729,300.11782 C -528.94399,298.01095 -525.40535,296.20776 -525.29364,296.11074 C -524.17626,295.14008 -529.04862,285.77169 -530.475,286.14825 C -534.95593,287.33121 -551.01242,296.03525 -551.6673,297.63633 C -554.89877,305.53665 -554.5388,307.29231 -547.31613,318.85941 C -543.59005,324.82675 -540.33061,329.60771 -540.07293,329.48379 C -539.81526,329.35985 -538.24567,328.33905 -536.58493,327.21531 z M -249.64405,324.2936 C -229.94933,307.67354 -220.18432,288.40114 -219.09802,264.00744 C -218.6854,254.74176 -219.85546,238.50377 -221.07995,236.50253 C -221.29564,236.15003 -223.96563,238.81239 -227.01328,242.41895 C -232.55443,248.97629 -232.55443,248.97629 -232.27208,254.07856 C -231.27909,272.02394 -238.71596,292.21448 -251.38205,305.96046 C -257.03544,312.09586 -257.03544,312.09586 -257.03544,320.88463 C -257.03544,331.27133 -257.60266,331.00972 -249.64405,324.2936 z M -522.13061,319.68587 C -520.52431,319.08589 -515.9533,313.85563 -515.9533,312.61764 C -515.9533,312.30457 -517.28323,309.85914 -518.9087,307.18331 C -521.86408,302.31823 -521.86408,302.31823 -527.62228,305.21803 C -530.78928,306.81287 -533.38047,308.2532 -533.38047,308.41867 C -533.38047,308.58416 -532.07163,311.59159 -530.47197,315.10183 C -527.34969,321.9532 -527.69405,321.76397 -522.13061,319.68587 z M -362.41095,299.76589 C -361.74747,298.52614 -361.79461,298.01667 -362.59996,297.72425 C -367.67941,295.87986 -399.50914,295.11859 -419.27404,296.36881 C -427.57269,296.89373 -427.57269,296.89373 -411.80524,302.13627 C -395.97985,307.39804 -383.64792,312.66286 -377.73141,316.68321 C -374.59578,318.81394 -369.72912,313.44002 -362.41095,299.76589 z M -503.12475,299.00291 C -495.72492,291.56868 -495.72492,291.56868 -498.15542,289.66694 C -508.39325,281.6564 -518.34705,271.28751 -523.16579,263.61364 C -524.88671,260.87311 -524.48328,273.71024 -522.6131,281.20104 C -521.09476,287.2825 -512.34149,306.43719 -511.08071,306.43719 C -510.77484,306.43719 -507.19466,303.09176 -503.12475,299.00291 z M -583.19602,297.93108 C -582.60644,294.62197 -581.97668,291.52638 -581.79659,291.05197 C -581.61016,290.56083 -593.81369,286.30566 -610.1384,281.16969 C -640.5861,271.59047 -641.99083,270.89549 -638.76436,267.00783 C -637.28058,265.21997 -638.14051,265.01075 -608.05334,274.47969 C -592.83891,279.26793 -580.31033,283.09569 -580.21206,282.98582 C -579.78253,282.50567 -576.43222,269.74999 -576.67673,269.52578 C -577.15778,269.08472 -642.07028,236.72853 -642.47409,236.72853 C -644.11782,236.72853 -657.44972,288.17917 -656.10596,289.33675 C -655.63184,289.74519 -588.031,303.74384 -586.00231,303.8537 C -584.48492,303.93584 -584.13397,303.19516 -583.19602,297.93108 z M -248.85359,291.15522 C -243.35519,282.08292 -239.22697,268.5643 -239.77499,261.42565 C -240.0232,258.1921 -240.0232,258.1921 -251.41566,273.50662 C -262.8081,288.82114 -262.8081,288.82114 -261.62272,292.44249 C -260.97073,294.43426 -260.00322,297.74434 -259.47263,299.79827 C -258.50792,303.53265 -258.50792,303.53265 -255.07075,299.63743 C -253.18031,297.49507 -250.38257,293.67807 -248.85359,291.15522 z M -210.45395,293.99782 C -185.98228,286.06581 -156.6896,283.524 -138.51374,287.75539 C -135.17247,288.53325 -132.24765,288.97858 -132.01411,288.74505 C -131.78058,288.51153 -138.3085,268.40326 -146.52063,244.05999 C -154.73274,219.71674 -161.64206,200.35969 -161.87464,201.04435 C -162.10725,201.72897 -162.53174,205.20429 -162.81796,208.76729 C -165.20153,238.43819 -183.1795,265.9757 -208.19388,278.27118 C -213.70848,280.98181 -213.70848,280.98181 -215.79943,287.27806 C -216.94946,290.74097 -218.14886,294.22782 -218.46481,295.02654 C -219.19875,296.88211 -219.4533,296.91477 -210.45395,293.99782 z M -352.18167,284.03084 C -347.0063,275.87996 -346.6083,276.56629 -357.78079,274.3758 C -363.21839,273.30967 -374.17635,272.93907 -415.1247,272.43647 C -455.91662,271.93578 -467.34441,271.55078 -473.97554,270.45378 C -484.00217,268.79507 -483.9402,268.74443 -477.5595,273.38225 C -455.84941,289.16229 -454.72439,289.41816 -406.82606,289.46901 C -378.78311,289.49878 -364.39128,289.81227 -362.42828,290.43611 C -357.67712,291.94601 -356.89824,291.4591 -352.18167,284.03084 z M -481.32761,279.99857 C -481.22513,279.70596 -482.66375,278.34626 -484.52449,276.97699 C -499.12612,266.23202 -510.5696,246.50759 -515.13776,224.21068 C -515.99233,220.03953 -516.85483,216.46349 -517.05439,216.26392 C -519.37594,213.94237 -539.3128,255.14181 -546.18171,276.45535 C -549.75646,287.54747 -549.83693,287.30304 -543.63027,284.20674 C -540.95964,282.87446 -536.98584,281.11309 -534.79959,280.29261 C -530.82464,278.80087 -530.82464,278.80087 -531.33064,272.07987 C -532.23244,260.10187 -528.57388,245.76139 -524.46743,245.17798 C -522.47319,244.89466 -522.35407,245.09781 -519.71651,253.27967 C -516.85736,262.14902 -510.42212,270.2501 -498.19797,280.3685 C -489.96614,287.18231 -489.96614,287.18231 -485.74001,283.85644 C -483.41566,282.02721 -481.43006,280.29116 -481.32761,279.99857 z M -202.19572,266.54707 C -181.09626,252.26417 -168.22834,224.03087 -169.21646,194.18795 C -169.4847,186.08675 -169.4847,186.08675 -176.74601,191.93325 C -184.00731,197.77976 -184.00731,197.77976 -184.00731,204.69291 C -184.00731,223.1989 -191.64077,238.31461 -207.75871,251.72531 C -211.1784,254.57062 -211.1784,254.57062 -211.78485,263.55658 C -212.47061,273.71802 -212.68857,273.65005 -202.19572,266.54707 z M -335.91071,258.2069 C -335.86183,257.54861 -344.00637,255.26334 -352.26101,253.6192 C -357.37324,252.60097 -368.91613,252.20773 -408.48579,251.70372 C -461.16608,251.0327 -465.17509,250.74619 -480.2691,246.57361 C -487.63191,244.53825 -497.69162,240.05163 -501.63313,237.04527 C -505.50234,234.0941 -505.68204,234.81898 -502.78853,241.70572 C -497.87037,253.41128 -494.12073,258.06111 -488.09973,259.92082 C -472.38337,264.77509 -457.36755,265.86329 -408.61908,265.68073 C -368.24626,265.52955 -360.29863,266.01237 -347.90565,269.36914 C -343.75633,270.49304 -343.75633,270.49304 -339.85257,264.60651 C -337.70549,261.36888 -335.93164,258.48908 -335.91071,258.2069 z M -571.49667,255.80851 C -568.57019,248.28685 -565.59155,251.1257 -595.8098,232.63632 C -622.40497,216.36373 -621.74533,216.85553 -620.99352,213.86007 C -620.02764,210.0117 -617.05428,211.34154 -591.21195,227.17996 C -566.17085,242.52732 -566.17085,242.52732 -562.99759,235.68607 C -561.02393,231.43108 -560.08075,228.43129 -560.50263,227.75095 C -562.8801,223.91691 -618.5022,182.99756 -619.55635,184.30709 C -621.48,186.69667 -631.96652,208.73052 -636.27254,219.4304 C -640.3952,229.67468 -640.3952,229.67468 -607.84192,246.01668 C -589.9376,255.00478 -574.97677,262.27626 -574.59563,262.17552 C -574.21448,262.07476 -572.81994,259.20961 -571.49667,255.80851 z M -328.00638,246.07338 C -323.13795,238.81626 -323.11885,238.8765 -330.95725,236.76149 C -353.32286,230.7266 -361.22016,230.01777 -414.29483,229.28143 C -456.31337,228.69848 -461.48309,228.47723 -468.23605,226.97278 C -483.8682,223.49019 -496.28016,216.9286 -504.47313,207.81603 C -509.87722,201.80541 -511.41205,204.74587 -509.36956,217.19662 C -508.03016,225.36123 -493.88606,235.5809 -477.81313,239.99739 C -463.00239,244.06699 -455.11855,244.61985 -415.1247,244.39324 C -368.43185,244.1287 -349.30056,245.57127 -336.27477,250.33887 C -334.45609,251.00453 -332.69586,251.57545 -332.36316,251.60763 C -332.03045,251.6398 -330.06991,249.14937 -328.00638,246.07338 z M -202.74074,236.86291 C -195.36041,227.7067 -192.16945,220.25321 -190.98122,209.3949 C -190.39666,204.05267 -190.39666,204.05267 -195.02888,208.05184 C -197.57659,210.25136 -203.17093,215.82959 -207.46079,220.4479 C -215.39166,228.98605 -215.9916,232.12101 -212.29456,245.70609 C -212.03823,246.64802 -206.48419,241.50714 -202.74074,236.86291 z M -310.65172,219.63601 C -302.01252,206.69282 -302.01252,206.69282 -303.52148,203.24618 C -307.41325,194.35696 -305.81157,182.60276 -301.64769,189.49525 C -300.78992,190.91514 -295.41501,194.40541 -294.08621,194.40541 C -293.88861,194.40541 -290.04826,189.28327 -285.5521,183.02285 C -281.05595,176.76244 -273.40867,166.53511 -268.55816,160.29546 C -257.80841,146.4671 -258.32446,147.3049 -259.60554,145.76133 C -268.85512,134.61627 -283.74224,143.18082 -282.43188,158.89329 C -281.91143,165.13388 -281.96608,165.42705 -283.77758,166.11094 C -287.71261,167.59646 -289.28848,165.02407 -289.82968,156.23163 C -290.42793,146.51237 -306.06038,150.99585 -307.4401,161.28243 C -308.10112,166.21068 -305.62808,172.14626 -303.17069,171.52948 C -300.93919,170.96941 -299.11401,172.83128 -299.50232,175.27159 C -299.65146,176.20889 -309.85634,187.84727 -322.17983,201.13471 C -334.50333,214.42212 -344.58618,225.47226 -344.58618,225.69056 C -344.58618,225.90887 -339.59386,227.34343 -333.4921,228.87848 C -327.39039,230.41348 -322.19334,231.87415 -321.94316,232.12433 C -320.49307,233.57443 -318.43844,231.302 -310.65172,219.63601 z M -342.38335,212.7445 C -331.88184,201.39591 -331.88184,201.39591 -332.59629,197.69319 C -332.98922,195.65671 -333.32699,191.85818 -333.34686,189.25207 C -333.383,184.51366 -333.383,184.51366 -336.79887,183.49025 C -345.24033,180.96114 -347.31728,175.32418 -339.81445,175.30583 C -332.96392,175.28903 -332.83812,175.16213 -331.74314,167.16494 C -331.22404,163.37351 -330.60487,159.76479 -330.36726,159.14555 C -329.38318,156.58115 -325.05786,157.0904 -323.98068,159.8975 C -323.31327,161.6368 -318.82573,160.22595 -315.7976,157.32483 C -307.17098,149.05998 -315.73083,134.48495 -327.87352,136.76291 C -329.86556,137.13663 -331.02156,136.89803 -332.01054,135.90907 C -335.42696,132.49265 -332.02616,129.67597 -324.48477,129.67597 C -318.69483,129.67597 -318.00569,128.71425 -320.44126,124.03315 C -326.38886,112.60201 -345.00112,116.07824 -345.00112,128.62022 C -345.00112,132.08512 -343.80751,134.27044 -339.33868,138.98736 C -335.93551,142.57942 -336.42968,146.27325 -340.31338,146.27325 C -342.32146,146.27325 -347.91402,141.00562 -349.95522,137.19163 C -352.36826,132.68281 -359.93869,138.66045 -359.93869,145.07461 C -359.93869,151.74066 -353.60772,160.5481 -351.51021,156.80004 C -351.07984,156.03101 -349.85837,155.40176 -348.79588,155.40176 C -344.31013,155.40176 -344.36304,155.86062 -352.80812,190.20154 C -362.08776,227.93612 -361.54661,224.11371 -357.65655,224.447 C -353.35189,224.81585 -354.04519,225.34706 -342.38335,212.7445 z M -367.4733,220.3387 C -365.74435,213.8404 -354.12962,165.93763 -354.12962,165.30511 C -354.12962,164.94048 -354.87852,164.40444 -355.79384,164.11393 C -370.0729,159.58192 -370.41653,134.33378 -356.26584,129.43468 C -353.40286,128.44349 -352.92864,127.88035 -352.05311,124.43208 C -351.51047,122.29496 -350.3553,119.75136 -349.48606,118.77956 C -347.90565,117.01272 -347.90565,117.01272 -354.54457,117.60588 C -361.26764,118.20655 -378.95667,120.98614 -379.37863,121.50819 C -379.50491,121.66444 -378.91413,129.07431 -378.06583,137.97461 C -376.03942,159.23526 -376.16923,161.62575 -379.35006,161.62575 C -381.63718,161.62575 -382.56343,160.76483 -383.45561,157.80979 C -383.92541,156.25372 -394.3913,148.59387 -396.24709,148.44786 C -401.3235,148.04847 -402.92442,162.81706 -398.41636,168.4594 C -394.01359,173.96996 -381.51518,177.32397 -381.51518,172.9949 C -381.51518,169.96682 -377.72164,168.32571 -375.87248,170.55383 C -374.61396,172.07024 -372.31349,197.69726 -373.27466,199.49325 C -374.2375,201.29231 -379.3788,202.13505 -387.02746,201.74758 C -393.71502,201.40878 -394.31623,203.13746 -390.33848,211.26769 C -385.9886,220.15852 -383.1355,222.5085 -376.29438,222.8352 C -373.00407,222.99235 -369.85959,223.1951 -369.30664,223.2858 C -368.75373,223.37651 -367.92873,222.05029 -367.4733,220.3387 z M -392.30342,222.18811 C -392.30342,221.9501 -393.24006,220.34002 -394.38484,218.61015 C -395.52961,216.88028 -397.18966,213.43398 -398.07382,210.95169 C -398.97144,208.43168 -400.15958,206.48714 -400.76413,206.5487 C -401.35964,206.60932 -404.98451,207.30816 -408.81942,208.10168 C -429.25136,212.32945 -457.80394,206.29258 -469.83722,195.20067 C -474.66011,190.75511 -474.87498,191.21072 -474.87498,205.88319 C -474.87498,218.77679 -475.01671,218.53865 -466.37248,220.16969 C -455.99157,222.12845 -392.30342,223.86395 -392.30342,222.18811 z M -552.8952,216.36485 C -549.14349,209.65618 -546.70291,213.16305 -572.17664,188.65937 C -594.53528,167.15215 -596.24956,164.98384 -592.4869,162.97012 C -590.20026,161.74634 -589.23575,162.54184 -566.73836,184.20762 C -545.74012,204.42966 -545.74012,204.42966 -540.83248,197.56412 C -536.66111,191.7286 -536.07636,190.48388 -536.93476,189.26742 C -539.05814,186.25854 -585.27551,133.10756 -585.81604,133.05292 C -587.0507,132.92816 -607.30163,162.26542 -613.27262,172.82894 C -615.38346,176.56334 -615.38346,176.56334 -585.79261,199.1325 C -569.51762,211.54558 -556.14052,221.72182 -556.06571,221.74635 C -555.99087,221.77088 -554.56415,219.34922 -552.8952,216.36485 z M -481.91969,205.40113 C -481.91467,200.03813 -481.69293,194.3351 -481.42693,192.72775 C -480.94331,189.80527 -480.94331,189.80527 -487.5558,188.06405 C -494.16831,186.32286 -494.16831,186.32286 -498.83682,191.77493 C -501.4045,194.77358 -503.50532,197.48536 -503.50532,197.80112 C -503.50532,200.28503 -485.66917,215.15203 -482.68917,215.15203 C -482.27099,215.15203 -481.92472,210.76412 -481.91969,205.40113 z M -413.48295,201.8343 C -401.1086,200.04604 -399.69527,199.05826 -405.2755,196.09796 C -407.38945,194.97651 -410.99997,192.56133 -413.29886,190.73094 C -417.4787,187.40292 -417.4787,187.40292 -426.26008,187.32927 C -441.94311,187.19779 -459.20938,177.1716 -465.84246,164.3446 C -467.3343,161.4598 -467.61517,161.6232 -479.77649,172.45085 C -489.50506,181.11251 -489.57203,180.33328 -478.86042,183.10926 C -470.76654,185.20685 -469.59078,185.76838 -465.53968,189.47081 C -454.50181,199.55881 -433.02809,204.65883 -413.48295,201.8343 z M -380.15161,194.13051 C -380.08441,194.05351 -380.22719,191.28305 -380.46888,187.97396 C -380.90832,181.95746 -380.90832,181.95746 -384.79551,181.95746 C -403.61332,181.95746 -414.94739,162.042 -404.71886,146.9496 C -403.3841,144.98012 -402.28522,142.74189 -402.27691,141.97575 C -402.2593,140.35218 -400.10351,137.97461 -398.64901,137.97461 C -398.09645,137.97461 -394.74033,140.0689 -391.19093,142.62858 C -383.39971,148.24734 -384.02662,149.04756 -385.3451,135.1667 C -386.66769,121.24225 -385.10656,122.43694 -397.36783,125.96605 C -409.09351,129.34098 -410.44223,130.06478 -414.00124,134.89253 C -428.79452,154.95927 -422.64995,180.13654 -400.37803,190.71343 C -393.16411,194.1393 -381.8301,196.05409 -380.15161,194.13051 z M -317.66807,186.03073 C -309.88996,177.65601 -309.88996,177.65601 -311.56667,174.20484 C -312.48885,172.30673 -313.49885,169.59055 -313.81108,168.16894 C -314.37881,165.58415 -314.37881,165.58415 -317.44944,166.6805 C -319.1383,167.28353 -321.54705,167.79328 -322.80223,167.81334 C -324.39966,167.83881 -325.0911,168.28548 -325.10683,169.302 C -325.11922,170.10074 -325.48267,174.30194 -325.91456,178.63797 C -326.53224,184.83939 -326.32517,194.40541 -325.57329,194.40541 C -325.50338,194.40541 -321.94603,190.6368 -317.66807,186.03073 z M -522.97511,174.28736 C -522.63163,173.27539 -527.73171,165.63574 -539.96354,148.83952 C -561.44461,119.34267 -560.9675,120.13748 -558.44331,118.05515 C -555.46514,115.59827 -555.13653,115.95394 -535.72893,142.63997 C -525.6452,156.50533 -517.15311,167.84975 -516.85758,167.84975 C -516.56207,167.84975 -513.97437,165.48279 -511.10716,162.58985 C -505.89398,157.32994 -505.89398,157.32994 -525.34557,123.82724 C -536.04394,105.40073 -545.19196,90.192908 -545.67454,90.032078 C -546.76316,89.669187 -566.39799,109.35639 -575.06425,119.50016 C -581.47878,127.0083 -581.47878,127.0083 -556.46032,155.85956 C -531.44187,184.71081 -531.44187,184.71081 -527.45391,180.22214 C -525.26052,177.75338 -523.24508,175.08271 -522.97511,174.28736 z M -425.53764,175.52601 C -430.58118,165.54505 -430.93657,153.93916 -426.54134,142.74634 C -425.15233,139.20902 -424.41044,136.31488 -424.89271,136.31488 C -427.94603,136.31488 -461.1822,156.24668 -461.1822,158.0778 C -461.1822,165.89146 -439.95026,180.1995 -428.25407,180.2678 C -423.12639,180.29771 -423.12639,180.29771 -425.53764,175.52601 z M -445.71777,162.81032 C -447.38606,161.49805 -447.90437,160.35207 -447.90437,157.97579 C -447.90437,151.83432 -440.99789,148.95498 -436.66347,153.28938 C -430.66368,159.28918 -439.02146,168.07766 -445.71777,162.81032 z M -177.78333,153.44634 C -175.50121,151.61312 -173.32516,149.85529 -172.94772,149.54009 C -171.01388,147.92524 -174.27101,142.12392 -177.11147,142.12392 C -188.53952,142.12392 -193.42997,128.22584 -184.33359,121.59959 C -182.12377,119.98984 -182.12377,119.98984 -183.54717,115.70438 C -185.3103,110.39613 -184.78938,110.29236 -192.61441,117.51089 C -199.14687,123.53703 -199.14687,123.53703 -200.86137,138.20715 C -201.80434,146.27574 -202.32905,153.1241 -202.0274,153.42574 C -201.19317,154.25998 -183.71075,157.68834 -182.76252,157.20369 C -182.3061,156.97041 -180.06545,155.2796 -177.78333,153.44634 z M -494.41303,146.93243 C -490.07136,143.19092 -488.97567,147.07991 -504.23096,112.08473 C -517.33573,82.02283 -517.83545,80.505641 -515.11244,79.048324 C -511.99184,77.378227 -510.72185,79.594416 -497.96265,108.97583 C -490.97091,125.07614 -485.11308,138.38643 -484.94527,138.55423 C -484.77745,138.72205 -481.63695,136.72642 -477.96637,134.1195 C -471.29257,129.37962 -471.29257,129.37962 -484.17268,91.146538 C -491.25674,70.118341 -497.17348,52.781943 -497.32099,52.621214 C -498.60822,51.218592 -539.80966,82.925263 -539.32903,84.948634 C -538.14538,89.931533 -500.66578,151.92927 -499.38948,151.01556 C -498.61511,150.4612 -496.3757,148.6238 -494.41303,146.93243 z M -293.03296,144.07262 C -287.95214,144.5313 -287.95214,144.5313 -285.31341,141.24773 C -278.7624,133.09587 -267.40577,131.96928 -257.69011,138.50744 C -253.30991,141.45509 -250.49143,140.05764 -246.23288,132.82673 C -244.26063,129.47786 -297.42896,117.22798 -313.93636,117.22798 C -314.55677,117.22798 -314.365,118.69252 -313.36581,121.58477 C -312.53801,123.98102 -311.84851,127.75946 -311.83363,129.98132 C -311.81167,133.25159 -311.33892,134.55366 -309.35186,136.81682 C -308.00179,138.35448 -306.50562,141.06668 -306.02704,142.84398 C -305.1569,146.07543 -305.1569,146.07543 -301.63532,144.84468 C -299.26104,144.01488 -296.45848,143.76335 -293.03296,144.07262 z M -453.71344,117.16993 C -453.71344,116.44864 -457.07437,101.82671 -461.1822,84.676756 C -469.63061,49.405201 -469.36524,51.128643 -466.54568,49.843969 C -462.90831,48.18667 -462.26418,49.938577 -454.4038,82.868121 C -450.27414,100.16854 -446.79262,114.43536 -446.66706,114.57216 C -445.78714,115.53083 -433.79796,108.35959 -433.80728,106.88015 C -433.82291,104.39714 -444.48886,25.76228 -444.86042,25.390726 C -446.48103,23.770108 -491.57836,47.360237 -490.84608,49.445533 C -490.65713,49.9836 -484.80246,67.287373 -477.83572,87.898352 C -465.16891,125.37282 -465.16891,125.37282 -459.44116,121.9271 C -456.22731,119.9937 -453.71344,117.90578 -453.71344,117.16993 z M -419.29163,102.59372 C -416.08697,101.39123 -413.218,100.17757 -412.91615,99.896665 C -412.61432,99.615725 -412.91339,83.575893 -413.58078,64.252569 C -414.88849,26.390598 -414.89236,26.43984 -410.65808,26.938222 C -407.6365,27.29387 -407.50214,28.500369 -406.42773,64.925035 C -405.90973,82.485622 -405.32868,97.010555 -405.13655,97.202695 C -404.03218,98.307055 -391.42253,93.639335 -391.09579,92.005248 C -390.33908,88.220619 -385.37356,7.7001526 -385.86648,7.2072266 C -387.03525,6.0384496 -435.4624,19.863176 -437.56512,21.96588 C -438.28213,22.682912 -426.78643,104.78001 -425.96899,104.78001 C -425.50109,104.78001 -422.4963,103.79616 -419.29163,102.59372 z M -229.35867,60.307853 C -215.73394,37.695691 -204.72013,19.061112 -204.88355,18.897701 C -206.39117,17.390095 -244.04373,7.5811986 -253.07497,6.3433396 C -256.77236,5.8365486 -256.77236,5.8365486 -274.80821,47.915598 C -284.72791,71.059072 -292.59872,90.239968 -292.29888,90.539808 C -291.99905,90.839658 -288.96009,91.680338 -285.54565,92.407975 C -279.3376,93.730965 -279.3376,93.730965 -277.40497,89.919519 C -269.38616,74.105078 -243.43879,24.492508 -242.75161,23.660715 C -241.4473,22.081894 -238.11529,22.420976 -237.14652,24.231117 C -236.45029,25.53202 -237.13533,27.472157 -240.73597,34.396963 C -265.058,81.173544 -272.04675,95.024755 -271.5684,95.504575 C -270.98786,96.086915 -256.42616,101.20638 -254.96077,101.34334 C -254.50434,101.38598 -242.98339,82.920044 -229.35867,60.307853 z M -367.65464,88.706502 C -367.37289,88.424752 -364.78082,72.792588 -361.89451,53.968378 C -355.82245,14.367184 -356.57549,17.463528 -353.09802,17.798662 C -349.27154,18.167426 -349.25956,17.924828 -354.93403,54.912619 C -357.69357,72.899915 -359.82358,87.744588 -359.66741,87.900781 C -359.51118,88.056984 -356.6039,87.949812 -353.20673,87.662637 C -347.03003,87.140519 -347.03003,87.140519 -336.02676,44.301182 C -329.97496,20.739538 -325.03717,1.1817512 -325.05394,0.83943212 C -325.15108,-1.1473817 -375.62031,3.1740386 -377.80226,5.3560056 C -377.97254,5.5262806 -379.2452,22.458105 -380.63042,42.9823 C -382.01566,63.506484 -383.37975,82.945677 -383.66175,86.18051 C -384.17447,92.062048 -384.17447,92.062048 -376.17069,90.640418 C -371.76861,89.858527 -367.93638,88.988262 -367.65464,88.706502 z M -282.15828,47.311865 C -266.19919,10.20024 -264.054,4.7105586 -265.32189,4.2261206 C -270.62863,2.1985202 -317.61558,-1.0795702 -317.61558,0.57779712 C -317.61558,0.91323312 -322.47028,19.997226 -328.4038,42.986688 C -334.33734,65.97613 -339.19135,85.269944 -339.19049,85.861794 C -339.18935,86.653031 -337.0356,87.004194 -331.05537,87.188233 C -322.92182,87.438555 -322.92182,87.438555 -312.25853,53.163778 C -300.02767,13.850399 -300.78213,15.800328 -297.93417,16.142199 C -293.54184,16.669456 -293.653,17.271193 -304.6578,52.539272 C -310.41882,71.002108 -315.13094,86.512938 -315.12919,87.007777 C -315.12739,87.513722 -312.12968,88.271184 -308.27958,88.738537 C -304.51409,89.195606 -301.21146,89.630975 -300.94044,89.706019 C -300.66942,89.781063 -292.21744,70.703687 -282.15828,47.311865 z" id="path2418" style="fill: rgb(255, 255, 255); stroke: none;"/>
                </g>
              </g>
            </g>
          </g>
        </g>
      </g>
    </g>
  </g>
</svg>
